<?xml version="1.0" encoding="utf-8"?>
<!-- Generator: Adobe Illustrator 15.1.0, SVG Export Plug-In . SVG Version: 6.00 Build 0)  -->
<!DOCTYPE svg PUBLIC "-//W3C//DTD SVG 1.1//EN" "http://www.w3.org/Graphics/SVG/1.1/DTD/svg11.dtd">
<svg version="1.1" id="Layer_1" xmlns="http://www.w3.org/2000/svg" xmlns:xlink="http://www.w3.org/1999/xlink" x="0px" y="0px"
	 width="32px" height="32px" viewBox="0 0 32 32" enable-background="new 0 0 32 32" xml:space="preserve">
<rect x="0" y="0" fill="#1E023F" width="32" height="32"/>
<path fill="#00FFFF" d="M22.118,15.644c-0.002,0-0.004-0.001-0.004-0.001l0.469-1.115c0.875,0.383,1.393,0.155,1.393-0.877V7.562
	h-1.01l2.377-0.892v6.981c0,0.298-0.029,0.562-0.08,0.803L22.118,15.644z M14.733,14.62c0-1.955,1.393-3.168,3.145-3.168
	c0.803,0,1.488,0.3,1.932,0.9l1.375-0.492l-0.006,0.961l0.002,3.178l-4.211,1.594C15.651,17.286,14.733,16.265,14.733,14.62z
	 M16.149,14.608c0,1.068,0.756,1.824,1.775,1.824c1.152,0,1.885-0.779,1.945-1.728c0.059-1.056-0.625-1.909-1.945-1.909
	C16.928,12.795,16.149,13.552,16.149,14.608z M13.087,19.063v-0.004h-1.044v-3.68l1.317-0.682v-1.14l-1.317,0.681v-0.359
	c0-0.816,0.665-1.239,1.317-1.053v-1.219c-1.382-0.25-2.698,0.541-2.698,2.271l-0.006,6.104L13.087,19.063z M12.426,5.769
	c-0.792,0-1.332,0.276-1.836,0.828l-0.096-0.744L8.369,6.657h0.889v3.901H8.321v0.833l2.317-0.877v-1.72
	c0-1.152,0.708-1.716,1.548-1.716c1.056,0,1.368,0.516,1.368,1.597V9.41l1.392-0.527V8.662C14.946,6.741,14.131,5.805,12.426,5.769z
	 M23.754,20.977h-3.062c0.066,0.385,0.268,0.709,0.58,0.939l-1.383,0.523c-0.396-0.52-0.613-1.205-0.613-2.027
	c0-1.775,1.285-3.084,3.156-3.084c1.775,0,2.965,1.023,2.998,3.016L23.754,20.977z M20.692,19.85h3.373
	c-0.121-0.828-0.744-1.273-1.596-1.273C21.676,18.577,20.897,19.022,20.692,19.85z M10.676,21.862c-0.792,0-1.333,0.275-1.836,0.828
	l-0.096-0.744L6.619,22.75h0.889v3.9H6.571v0.832l2.317-0.877v-1.719c0-1.152,0.708-1.717,1.548-1.717
	c1.056,0,1.368,0.516,1.368,1.596v0.736l1.392-0.527v-0.221C13.196,22.834,12.379,21.899,10.676,21.862z M16.075,19.479v3.996h-0.84
	v0.729l2.203-0.834v-4.723l-2.191,0.832H16.075z M17.313,8.068c-0.023-0.136-0.039-0.275-0.039-0.419
	c0-1.068,0.648-1.859,1.74-1.859c0.734,0,1.307,0.411,1.57,1.04l1.305-0.493c-0.426-1.097-1.422-1.818-2.887-1.818
	c-1.896,0-3.131,1.356-3.131,3.131c0,0.326,0.039,0.634,0.111,0.922L17.313,8.068z"/>
</svg>
