<?xml version="1.0" encoding="utf-8"?>
<!-- Generator: Adobe Illustrator 15.1.0, SVG Export Plug-In . SVG Version: 6.00 Build 0)  -->
<!DOCTYPE svg PUBLIC "-//W3C//DTD SVG 1.1//EN" "http://www.w3.org/Graphics/SVG/1.1/DTD/svg11.dtd">
<svg version="1.1" id="Layer_1" xmlns="http://www.w3.org/2000/svg" xmlns:xlink="http://www.w3.org/1999/xlink" x="0px" y="0px"
	 viewBox="0 0 50.917 30.833" enable-background="new 0 0 50.917 30.833" xml:space="preserve">
<g>
	<g>
		<g>
			<path fill="#FFFFFF" d="M28.225,0.634h-3.249c-0.992,0-1.805,0.809-1.805,1.802v15.777h0.602V2.437
				c0-0.662,0.539-1.202,1.203-1.202H26.3v19.53h0.602V1.235h1.323c0.664,0,1.205,0.54,1.205,1.202v18.44
				c0,0.664-0.541,1.203-1.205,1.203h-3.249v0.601h3.249c0.994,0,1.805-0.81,1.805-1.804V2.437
				C30.03,1.443,29.218,0.634,28.225,0.634z"/>
		</g>
		<g>
			<g>
				<path fill="#FFFFFF" d="M29.412,23.935l-5.559-0.002c-0.016-0.004-0.033-0.004-0.055-0.004c-0.207,0-0.369,0.079-0.453,0.228
					c-0.061,0.104-0.1,0.28,0.043,0.524c0.191,0.342,0.904,1.569,0.904,1.569l1.881,3.263c0.067,0.146,0.219,0.301,0.426,0.301
					c0.115,0,0.279-0.049,0.415-0.28l2.786-4.82c0.093-0.141,0.16-0.357,0.062-0.545C29.817,24.083,29.696,23.935,29.412,23.935z
					 M26.599,29.045l-1.785-3.096c0,0-0.559-0.965-0.82-1.418l5.217,0.004L26.599,29.045z"/>
			</g>
		</g>
	</g>
</g>
</svg>
