<?xml version="1.0" encoding="utf-8"?>
<!-- Generator: Adobe Illustrator 15.1.0, SVG Export Plug-In . SVG Version: 6.00 Build 0)  -->
<!DOCTYPE svg PUBLIC "-//W3C//DTD SVG 1.1//EN" "http://www.w3.org/Graphics/SVG/1.1/DTD/svg11.dtd">
<svg version="1.1" id="Layer_1" xmlns="http://www.w3.org/2000/svg" xmlns:xlink="http://www.w3.org/1999/xlink" x="0px" y="0px"
	 viewBox="219.333 0 50.917 30.833" enable-background="new 219.333 0 50.917 30.833"
	 xml:space="preserve">
<path fill="#FFFFFF" d="M242.134,14.251h6.306v0.603h-6.306V14.251z M259.04,2.407V21.33c0,1.234-1.156,1.723-1.768,1.809
	l-0.021,0.002h-17.599c-1,0-1.812-0.812-1.812-1.811V2.407c0-0.999,0.812-1.812,1.812-1.812h17.575
	C258.229,0.594,259.04,1.409,259.04,2.407z M258.44,2.407c0-0.667-0.543-1.211-1.213-1.211h-17.575
	c-0.668,0-1.213,0.544-1.213,1.211V21.33c0,0.666,0.545,1.209,1.213,1.209h17.552c0.164-0.027,1.236-0.244,1.236-1.209V2.407z
	 M242.134,7.908h13.028V7.307h-13.028V7.908z M242.134,12.169h9.597v-0.603h-9.595C242.136,11.567,242.136,12.169,242.134,12.169z
	 M251.432,28.041c0,1.166-1.09,1.211-1.213,1.211H232.64c-0.666,0-1.211-0.543-1.211-1.211V9.119c0-0.668,0.545-1.211,1.211-1.211
	h2.766V7.307h-2.766c-0.998,0-1.812,0.812-1.812,1.812v18.922c0,0.998,0.814,1.812,1.812,1.812h17.579
	c0.625,0,1.812-0.379,1.812-1.812v-2.295h-0.602v2.295H251.432z"/>
</svg>
