<?xml version="1.0" encoding="utf-8"?>
<!-- Generator: Adobe Illustrator 15.1.0, SVG Export Plug-In . SVG Version: 6.00 Build 0)  -->
<!DOCTYPE svg PUBLIC "-//W3C//DTD SVG 1.1//EN" "http://www.w3.org/Graphics/SVG/1.1/DTD/svg11.dtd">
<svg version="1.1" id="Layer_1" xmlns="http://www.w3.org/2000/svg" xmlns:xlink="http://www.w3.org/1999/xlink" x="0px" y="0px"
	 viewBox="0 0 50.917 30.833" enable-background="new 0 0 50.917 30.833" xml:space="preserve">
<path fill="#FFFFFF" d="M10.71,29.243H41.25v0.598H10.71V29.243z M44.611,20.763v4.264c0,1.134-0.926,2.062-2.061,2.062H9.651
	c-1.137,0-2.062-0.93-2.062-2.062v-4.264c0-1.136,0.928-2.063,2.062-2.063h10.99l0.086,0.151c0.828,1.422,2.983,2.379,5.375,2.379
	c2.384,0,4.544-0.957,5.37-2.379L31.56,18.7h10.99C43.685,18.7,44.611,19.627,44.611,20.763z M44.015,20.763
	c0-0.81-0.656-1.466-1.465-1.466H31.896c-0.996,1.541-3.244,2.527-5.794,2.527c-2.556,0-4.806-0.986-5.802-2.527H9.651
	c-0.81,0-1.465,0.656-1.465,1.466v4.264c0,0.808,0.655,1.466,1.465,1.466H42.55c0.809,0,1.465-0.658,1.465-1.466V20.763z
	 M19.233,7.412c0-3.751,3.054-6.803,6.806-6.803c3.748,0,6.801,3.052,6.801,6.803c0,2.844-1.729,5.342-4.354,6.351
	c0.385,0.519,0.59,1.144,0.59,1.798v1.609c0,1.682-1.363,3.043-3.037,3.043c-1.679,0-3.041-1.361-3.041-3.043v-1.61
	c0-0.654,0.205-1.279,0.588-1.798C20.964,12.753,19.233,10.255,19.233,7.412z M19.83,7.412c0,2.732,1.75,5.112,4.356,5.927
	l0.469,0.146l-0.35,0.349c-0.459,0.461-0.716,1.075-0.716,1.727v1.609c0,1.352,1.101,2.445,2.445,2.445
	c1.348,0,2.442-1.095,2.442-2.445v-1.61c0-0.653-0.254-1.266-0.713-1.727l-0.351-0.349l0.472-0.146
	c2.604-0.812,4.354-3.194,4.354-5.927c0-3.423-2.783-6.207-6.205-6.207C22.612,1.205,19.83,3.989,19.83,7.412z"/>
</svg>
