<?xml version="1.0" encoding="utf-8"?>
<!-- Generator: Adobe Illustrator 16.0.0, SVG Export Plug-In . SVG Version: 6.00 Build 0)  -->
<!DOCTYPE svg PUBLIC "-//W3C//DTD SVG 1.1//EN" "http://www.w3.org/Graphics/SVG/1.1/DTD/svg11.dtd">
<svg version="1.1" id="Layer_1" xmlns="http://www.w3.org/2000/svg" xmlns:xlink="http://www.w3.org/1999/xlink" x="0px" y="0px"
	 viewBox="0 0 176 161" enable-background="new 0 0 176 161" xml:space="preserve">

<style xmlns="http://www.w3.org/2000/svg">
   svg g { fill: #fff; display: none; }
   svg g:target { display: inline }
   .icon { fill: #2029b4; }
</style>


<g id="www">
	<path d="M89.071,117.663c3.043,0,5.518-2.477,5.518-5.52s-2.475-5.52-5.518-5.52c-3.045,0-5.521,2.477-5.521,5.52
		S86.026,117.663,89.071,117.663z M89.071,108.624c1.939,0,3.518,1.578,3.518,3.52s-1.578,3.52-3.518,3.52
		c-1.941,0-3.521-1.578-3.521-3.52S87.13,108.624,89.071,108.624z"/>
	<path d="M115.009,131.78H63.126c-0.553,0-1,0.447-1,1c0,0.551,0.447,1,1,1h51.883c0.553,0,1-0.449,1-1
		C116.009,132.228,115.562,131.78,115.009,131.78z"/>
	<path d="M138.515,37.05H39.626c-3.848,0-6.979,3.131-6.979,6.977v74.801c0,3.848,3.131,6.977,6.979,6.977h98.889
		c3.846,0,6.975-3.129,6.975-6.977V44.026C145.489,40.181,142.36,37.05,138.515,37.05z M143.489,118.827
		c0,2.744-2.232,4.977-4.975,4.977H39.626c-2.744,0-4.979-2.232-4.979-4.977v-18.062h108.842V118.827z M143.489,98.765H34.647
		V44.026c0-2.744,2.234-4.977,4.979-4.977h98.889c2.742,0,4.975,2.232,4.975,4.977V98.765z"/>
</g>
<g id="dtp">
	<rect x="79.76" y="82.184" width="20.973" height="2"/>
	<path d="M129.973,36.744h-58.48c-3.326,0-6.031,2.705-6.031,6.029v62.955c0,3.324,2.705,6.029,6.031,6.029h58.551
		l0.068-0.01c2.037-0.285,5.889-1.908,5.889-6.02V42.773C136,39.449,133.299,36.744,129.973,36.744z M134,105.729
		c0,3.205-3.566,3.936-4.105,4.029H71.492c-2.223,0-4.031-1.809-4.031-4.029V42.773c0-2.223,1.809-4.029,4.031-4.029h58.48
		c2.223,0,4.027,1.807,4.027,4.029V105.729z"/>
	<rect x="79.76" y="59.072" width="43.336" height="2"/>
	<rect x="79.76" y="73.252" width="31.922" height="2"/>
	<path d="M110.682,128.057c0,3.881-3.619,4.025-4.029,4.029H48.17c-2.221,0-4.033-1.807-4.033-4.029V65.102
		c0-2.221,1.812-4.029,4.033-4.029h9.191v-2H48.17c-3.324,0-6.033,2.705-6.033,6.029v62.955c0,3.324,2.709,6.029,6.033,6.029h58.482
		c2.084,0,6.029-1.26,6.029-6.029v-7.627h-2V128.057z"/>
</g>
<g id="creation">
	<path d="M94.486,36.779H83.65c-3.312,0-6.01,2.695-6.01,6.01v52.6h2v-52.6c0-2.211,1.799-4.01,4.01-4.01h4.42
		v65.111h2V38.779h4.416c2.211,0,4.01,1.799,4.01,4.01v61.48c0,2.211-1.799,4.01-4.01,4.01H83.65v2h10.836
		c3.314,0,6.01-2.695,6.01-6.01v-61.48C100.496,39.475,97.801,36.779,94.486,36.779z"/>
	<path d="M98.432,114.449L79.9,114.443c-0.041-0.002-0.1-0.006-0.168-0.006c-0.695,0-1.232,0.268-1.514,0.754
		c-0.199,0.346-0.338,0.93,0.133,1.75c0.648,1.131,3.023,5.238,3.023,5.238l6.268,10.865c0.232,0.486,0.725,1.006,1.416,1.006
		c0.389,0,0.939-0.162,1.385-0.936l9.289-16.072c0.318-0.473,0.541-1.199,0.215-1.816C99.791,114.938,99.389,114.449,98.432,114.449
		z M89.061,131.504l-5.953-10.324c0,0-1.857-3.213-2.734-4.736l17.393,0.01L89.061,131.504z"/>
</g>
<g id="branding">
	<rect x="37.463" y="132.427" width="102.416" height="2"/>
	<path d="M144.229,97.085h-36.85l-0.287,0.496c-2.773,4.771-10.018,7.979-18.021,7.979
		c-8.006,0-15.248-3.207-18.023-7.979l-0.287-0.496H33.904c-3.812,0-6.916,3.102-6.916,6.914v14.293
		c0,3.812,3.104,6.916,6.916,6.916h110.324c3.814,0,6.92-3.104,6.92-6.916v-14.293C151.148,100.187,148.043,97.085,144.229,97.085z
		 M149.148,118.292c0,2.711-2.207,4.916-4.92,4.916H33.904c-2.707,0-4.916-2.205-4.916-4.916v-14.293
		c0-2.711,2.209-4.914,4.916-4.914h35.717c3.346,5.166,10.891,8.475,19.449,8.475c8.557,0,16.102-3.309,19.445-8.475h35.713
		c2.713,0,4.92,2.203,4.92,4.914V118.292z"/>
	<path d="M80.631,80.513c-1.283,1.738-1.973,3.832-1.973,6.033v5.408c0,5.623,4.574,10.197,10.195,10.197
		c5.623,0,10.193-4.574,10.193-10.197v-5.408c0-2.201-0.689-4.297-1.971-6.033c8.789-3.379,14.596-11.756,14.596-21.293
		c0-12.58-10.238-22.816-22.818-22.816c-12.582,0-22.818,10.236-22.818,22.816C66.035,68.757,71.844,77.134,80.631,80.513z
		 M88.854,38.403c11.48,0,20.818,9.338,20.818,20.816c0,9.16-5.871,17.148-14.607,19.875l-1.578,0.492l1.168,1.17
		c1.543,1.545,2.393,3.602,2.393,5.789v5.408c0,4.52-3.676,8.197-8.193,8.197c-4.52,0-8.195-3.678-8.195-8.197v-5.408
		c0-2.186,0.85-4.242,2.395-5.789l1.168-1.17l-1.576-0.492c-8.74-2.729-14.609-10.715-14.609-19.875
		C68.035,47.741,77.375,38.403,88.854,38.403z"/>
</g>



<g id="fb" class="icon">
	<path d="M35.054,17.363h-6.713v-4.406c0-1.655,1.093-2.042,1.865-2.042c0.77,0,4.743,0,4.743,0V3.643l-6.527-0.027
	c-7.253,0-8.899,5.426-8.899,8.898v4.849h-4.192v7.493h4.192c0,9.62,0,21.208,0,21.208h8.818c0,0,0-11.704,0-21.208h5.945
	L35.054,17.363z"/>
</g> 
<g id="twitter" class="icon">	
<path d="M46.104,11.867c-1.536,0.685-3.19,1.147-4.925,1.351c1.771-1.061,3.132-2.743,3.772-4.749
	c-1.658,0.984-3.495,1.7-5.45,2.085c-1.563-1.668-3.796-2.708-6.262-2.708c-4.74,0-8.582,3.839-8.582,8.577
	c0,0.675,0.077,1.328,0.222,1.956c-7.132-0.356-13.454-3.773-17.686-8.964c-0.742,1.268-1.164,2.741-1.164,4.314
	c0,2.98,1.517,5.603,3.821,7.142c-1.408-0.043-2.734-0.431-3.887-1.072c-0.005,0.034-0.005,0.07-0.005,0.109
	c0,4.155,2.962,7.624,6.886,8.413c-0.721,0.197-1.479,0.301-2.261,0.301c-0.553,0-1.093-0.052-1.616-0.15
	c1.095,3.405,4.26,5.887,8.016,5.957c-2.936,2.301-6.634,3.672-10.654,3.672c-0.694,0-1.377-0.041-2.05-0.119
	c3.8,2.434,8.312,3.854,13.155,3.854c15.785,0,24.412-13.073,24.412-24.414c0-0.372-0.005-0.743-0.024-1.108
	C43.502,15.102,44.958,13.59,46.104,11.867z"/>
</g>
<g id="behance" class="icon">
	<path d="M20.814,23.32c0,0,4.298-0.322,4.298-5.358c0-5.037-3.515-7.494-7.969-7.494H8.951h-0.24H2.498v28.148h6.213
		h0.24h8.193c0,0,8.938,0.284,8.938-8.309C26.082,30.308,26.477,23.32,20.814,23.32z M8.951,15.468h7.142h1.051
		c0,0,1.995,0,1.995,2.928c0,2.931-1.173,3.355-2.501,3.355H8.951V15.468z M16.729,33.615c-0.215,0.004-0.401,0-0.521,0H8.951v-7.523
		h8.193c0,0,2.964-0.041,2.964,3.865C20.108,33.249,17.897,33.587,16.729,33.615z M38.011,17.631
		c-10.824,0-10.813,10.812-10.813,10.812s-0.739,10.762,10.813,10.762c0,0,9.638,0.553,9.638-7.486h-4.956c0,0,0.165,3.03-4.514,3.03
		c0,0-4.955,0.329-4.955-4.9h14.587C47.811,29.848,49.408,17.631,38.011,17.631z M33.17,26.092c0,0,0.604-4.34,4.955-4.34
		c4.347,0,4.29,4.34,4.29,4.34H33.17z M43.571,15.591H31.957v-3.466h11.614V15.591z"/>
</g>
<g id="instagram" class="icon">
	<path d="M37.702,4.451h-25.02c-4.346,0-7.88,3.534-7.88,7.879v8.325v16.694c0,4.345,3.534,7.881,7.88,7.881h25.02
		c4.341,0,7.88-3.536,7.88-7.881V20.655V12.33C45.582,7.984,42.043,4.451,37.702,4.451z M39.962,9.149l0.9-0.004v0.9v6.013
		l-6.891,0.023L33.951,9.17L39.962,9.149z M19.373,20.655c1.308-1.806,3.421-2.995,5.819-2.995s4.518,1.188,5.821,2.995
		c0.85,1.176,1.359,2.62,1.359,4.184c0,3.958-3.223,7.176-7.181,7.176c-3.954,0-7.177-3.218-7.177-7.176
		C18.015,23.275,18.521,21.831,19.373,20.655z M41.61,37.349c0,2.155-1.754,3.907-3.908,3.907h-25.02
		c-2.151,0-3.908-1.752-3.908-3.907V20.655h6.089c-0.523,1.294-0.82,2.704-0.82,4.184c0,6.147,5.001,11.152,11.147,11.152
		c6.152,0,11.153-5.005,11.153-11.152c0-1.48-0.303-2.89-0.826-4.184h6.092V37.349z"/>
</g>





</svg>
