<?xml version="1.0" encoding="utf-8"?>
<!-- Generator: Adobe Illustrator 16.0.0, SVG Export Plug-In . SVG Version: 6.00 Build 0)  -->
<!DOCTYPE svg PUBLIC "-//W3C//DTD SVG 1.1//EN" "http://www.w3.org/Graphics/SVG/1.1/DTD/svg11.dtd">
<svg version="1.1" id="Layer_1" xmlns="http://www.w3.org/2000/svg" xmlns:xlink="http://www.w3.org/1999/xlink" x="0px" y="0px"
	 viewBox="0 0 176 161" enable-background="new 0 0 176 161" xml:space="preserve">

<style xmlns="http://www.w3.org/2000/svg">
   svg g { fill: #fff; display: none; }
   svg path { fill: #fff; }
   svg g:target { display: inline }
</style>


<g id="www">
	<path d="M89.071,117.663c3.043,0,5.518-2.477,5.518-5.52s-2.475-5.52-5.518-5.52c-3.045,0-5.521,2.477-5.521,5.52
		S86.026,117.663,89.071,117.663z M89.071,108.624c1.939,0,3.518,1.578,3.518,3.52s-1.578,3.52-3.518,3.52
		c-1.941,0-3.521-1.578-3.521-3.52S87.13,108.624,89.071,108.624z"/>
	<path d="M115.009,131.78H63.126c-0.553,0-1,0.447-1,1c0,0.551,0.447,1,1,1h51.883c0.553,0,1-0.449,1-1
		C116.009,132.228,115.562,131.78,115.009,131.78z"/>
	<path d="M138.515,37.05H39.626c-3.848,0-6.979,3.131-6.979,6.977v74.801c0,3.848,3.131,6.977,6.979,6.977h98.889
		c3.846,0,6.975-3.129,6.975-6.977V44.026C145.489,40.181,142.36,37.05,138.515,37.05z M143.489,118.827
		c0,2.744-2.232,4.977-4.975,4.977H39.626c-2.744,0-4.979-2.232-4.979-4.977v-18.062h108.842V118.827z M143.489,98.765H34.647
		V44.026c0-2.744,2.234-4.977,4.979-4.977h98.889c2.742,0,4.975,2.232,4.975,4.977V98.765z"/>
</g>
<g id="dtp">
	<rect x="79.76" y="82.184" width="20.973" height="2"/>
	<path d="M129.973,36.744h-58.48c-3.326,0-6.031,2.705-6.031,6.029v62.955c0,3.324,2.705,6.029,6.031,6.029h58.551
		l0.068-0.01c2.037-0.285,5.889-1.908,5.889-6.02V42.773C136,39.449,133.299,36.744,129.973,36.744z M134,105.729
		c0,3.205-3.566,3.936-4.105,4.029H71.492c-2.223,0-4.031-1.809-4.031-4.029V42.773c0-2.223,1.809-4.029,4.031-4.029h58.48
		c2.223,0,4.027,1.807,4.027,4.029V105.729z"/>
	<rect x="79.76" y="59.072" width="43.336" height="2"/>
	<rect x="79.76" y="73.252" width="31.922" height="2"/>
	<path d="M110.682,128.057c0,3.881-3.619,4.025-4.029,4.029H48.17c-2.221,0-4.033-1.807-4.033-4.029V65.102
		c0-2.221,1.812-4.029,4.033-4.029h9.191v-2H48.17c-3.324,0-6.033,2.705-6.033,6.029v62.955c0,3.324,2.709,6.029,6.033,6.029h58.482
		c2.084,0,6.029-1.26,6.029-6.029v-7.627h-2V128.057z"/>
</g>
<g id="creation">
	<path d="M94.486,36.779H83.65c-3.312,0-6.01,2.695-6.01,6.01v52.6h2v-52.6c0-2.211,1.799-4.01,4.01-4.01h4.42
		v65.111h2V38.779h4.416c2.211,0,4.01,1.799,4.01,4.01v61.48c0,2.211-1.799,4.01-4.01,4.01H83.65v2h10.836
		c3.314,0,6.01-2.695,6.01-6.01v-61.48C100.496,39.475,97.801,36.779,94.486,36.779z"/>
	<path d="M98.432,114.449L79.9,114.443c-0.041-0.002-0.1-0.006-0.168-0.006c-0.695,0-1.232,0.268-1.514,0.754
		c-0.199,0.346-0.338,0.93,0.133,1.75c0.648,1.131,3.023,5.238,3.023,5.238l6.268,10.865c0.232,0.486,0.725,1.006,1.416,1.006
		c0.389,0,0.939-0.162,1.385-0.936l9.289-16.072c0.318-0.473,0.541-1.199,0.215-1.816C99.791,114.938,99.389,114.449,98.432,114.449
		z M89.061,131.504l-5.953-10.324c0,0-1.857-3.213-2.734-4.736l17.393,0.01L89.061,131.504z"/>
</g>
<g id="branding">
	<rect x="37.463" y="132.427" width="102.416" height="2"/>
	<path d="M144.229,97.085h-36.85l-0.287,0.496c-2.773,4.771-10.018,7.979-18.021,7.979
		c-8.006,0-15.248-3.207-18.023-7.979l-0.287-0.496H33.904c-3.812,0-6.916,3.102-6.916,6.914v14.293
		c0,3.812,3.104,6.916,6.916,6.916h110.324c3.814,0,6.92-3.104,6.92-6.916v-14.293C151.148,100.187,148.043,97.085,144.229,97.085z
		 M149.148,118.292c0,2.711-2.207,4.916-4.92,4.916H33.904c-2.707,0-4.916-2.205-4.916-4.916v-14.293
		c0-2.711,2.209-4.914,4.916-4.914h35.717c3.346,5.166,10.891,8.475,19.449,8.475c8.557,0,16.102-3.309,19.445-8.475h35.713
		c2.713,0,4.92,2.203,4.92,4.914V118.292z"/>
	<path d="M80.631,80.513c-1.283,1.738-1.973,3.832-1.973,6.033v5.408c0,5.623,4.574,10.197,10.195,10.197
		c5.623,0,10.193-4.574,10.193-10.197v-5.408c0-2.201-0.689-4.297-1.971-6.033c8.789-3.379,14.596-11.756,14.596-21.293
		c0-12.58-10.238-22.816-22.818-22.816c-12.582,0-22.818,10.236-22.818,22.816C66.035,68.757,71.844,77.134,80.631,80.513z
		 M88.854,38.403c11.48,0,20.818,9.338,20.818,20.816c0,9.16-5.871,17.148-14.607,19.875l-1.578,0.492l1.168,1.17
		c1.543,1.545,2.393,3.602,2.393,5.789v5.408c0,4.52-3.676,8.197-8.193,8.197c-4.52,0-8.195-3.678-8.195-8.197v-5.408
		c0-2.186,0.85-4.242,2.395-5.789l1.168-1.17l-1.576-0.492c-8.74-2.729-14.609-10.715-14.609-19.875
		C68.035,47.741,77.375,38.403,88.854,38.403z"/>
</g>
</svg>
