<?xml version="1.0" encoding="utf-8"?>
<!-- Generator: Adobe Illustrator 16.0.0, SVG Export Plug-In . SVG Version: 6.00 Build 0)  -->
<!DOCTYPE svg PUBLIC "-//W3C//DTD SVG 1.1//EN" "http://www.w3.org/Graphics/SVG/1.1/DTD/svg11.dtd">
<svg version="1.1" id="Layer_1" xmlns="http://www.w3.org/2000/svg" xmlns:xlink="http://www.w3.org/1999/xlink" x="0px" y="0px"
	 viewBox="0 0 50 50" enable-background="new 0 0 50 50" xml:space="preserve">

	 <style xmlns="http://www.w3.org/2000/svg">
	    svg g { fill: #fff; display: none; }
	    svg g:target { display: inline; }
	    .social { fill: #00ffff; }
	    .offer_icon { fill: #00ffff; }
	    .logo_contact { fill: #00ffff; }
	 </style>

<g id="fb" class="social">
	<path d="M32.038,20.232h-4.829v-3.17c0-1.19,0.786-1.469,1.343-1.469c0.554,0,3.411,0,3.411,0v-5.231l-4.696-0.02
		c-5.218,0-6.401,3.904-6.401,6.402v3.488h-3.016v5.391h3.016c0,6.921,0,15.258,0,15.258h6.344c0,0,0-8.421,0-15.258h4.277
		L32.038,20.232z"/>
</g>
<g id="twitter" class="social">
	<path d="M43.671,13.943c-1.376,0.613-2.857,1.027-4.41,1.21c1.585-0.95,2.804-2.456,3.377-4.253
		c-1.484,0.881-3.128,1.523-4.881,1.868c-1.398-1.494-3.398-2.426-5.605-2.426c-4.245,0-7.685,3.438-7.685,7.681
		c0,0.605,0.07,1.189,0.199,1.751c-6.387-0.319-12.047-3.38-15.838-8.028c-0.665,1.135-1.042,2.454-1.042,3.863
		c0,2.668,1.358,5.018,3.421,6.396c-1.261-0.04-2.448-0.386-3.481-0.961c-0.004,0.031-0.004,0.064-0.004,0.098
		c0,3.72,2.654,6.825,6.167,7.532c-0.645,0.176-1.324,0.27-2.024,0.27c-0.496,0-0.978-0.047-1.447-0.135
		c0.979,3.05,3.814,5.271,7.178,5.334c-2.629,2.062-5.94,3.289-9.541,3.289c-0.621,0-1.233-0.036-1.835-0.108
		c3.402,2.18,7.444,3.452,11.78,3.452c14.136,0,21.86-11.707,21.86-21.861c0-0.333-0.005-0.666-0.023-0.992
		C41.339,16.839,42.645,15.486,43.671,13.943z"/>
</g>
<g id="behance" class="social">
	<path d="M20.293,23.99c0,0,4.564-0.342,4.564-5.688c0-5.35-3.73-7.959-8.461-7.959h-8.7H7.442H0.845v29.893h6.598
		h0.254h8.7c0,0,9.491,0.3,9.491-8.826C25.887,31.409,26.306,23.99,20.293,23.99z M7.696,15.652h7.584h1.116c0,0,2.116,0,2.116,3.111
		c0,3.112-1.244,3.562-2.656,3.562H7.696V15.652z M15.956,34.922c-0.226,0.005-0.425,0-0.553,0H7.696v-7.987h8.7
		c0,0,3.147-0.045,3.147,4.102C19.543,34.534,17.197,34.893,15.956,34.922z M38.556,17.949c-11.493,0-11.483,11.479-11.483,11.479
		s-0.785,11.427,11.483,11.427c0,0,10.232,0.589,10.232-7.947h-5.265c0,0,0.178,3.218-4.79,3.218c0,0-5.263,0.347-5.263-5.204h15.491
		C48.962,30.922,50.658,17.949,38.556,17.949z M33.413,26.935c0,0,0.644-4.61,5.262-4.61c4.616,0,4.556,4.61,4.556,4.61H33.413z
		 M44.456,15.782h-12.33v-3.68h12.33V15.782z"/>
</g>
<g id="instagram" class="social">
	<path d="M34.305,10.342H15.583c-3.251,0-5.896,2.644-5.896,5.895v6.231v12.491c0,3.252,2.644,5.896,5.896,5.896
		h18.722c3.249,0,5.896-2.645,5.896-5.896V22.468v-6.231C40.201,12.986,37.554,10.342,34.305,10.342z M35.997,13.858l0.673-0.003
		v0.673v4.499l-5.154,0.018l-0.018-5.172L35.997,13.858z M20.588,22.468c0.979-1.352,2.56-2.241,4.355-2.241
		c1.794,0,3.381,0.889,4.355,2.241c0.636,0.879,1.017,1.959,1.017,3.13c0,2.962-2.411,5.371-5.372,5.371
		c-2.959,0-5.37-2.408-5.37-5.371C19.574,24.428,19.952,23.347,20.588,22.468z M37.229,34.959c0,1.612-1.311,2.923-2.924,2.923
		H15.583c-1.607,0-2.923-1.311-2.923-2.923V22.468h4.556c-0.391,0.967-0.614,2.021-0.614,3.13c0,4.599,3.742,8.344,8.342,8.344
		c4.604,0,8.346-3.745,8.346-8.344c0-1.108-0.227-2.163-0.618-3.13h4.558V34.959z"/>
</g>


<g id="www" class="offer_icon">
	<path d="M24.944,35.684c0.957,0,1.735-0.777,1.735-1.733c0-0.957-0.778-1.735-1.735-1.735
		c-0.956,0-1.735,0.778-1.735,1.735C23.209,34.906,23.988,35.684,24.944,35.684z M24.944,32.844c0.609,0,1.106,0.495,1.106,1.106
		c0,0.61-0.497,1.105-1.106,1.105c-0.61,0-1.105-0.495-1.105-1.105C23.839,33.339,24.334,32.844,24.944,32.844z"/>
	<path d="M33.097,40.122H16.789c-0.174,0-0.314,0.141-0.314,0.315c0,0.173,0.14,0.312,0.314,0.312h16.308
		c0.176,0,0.315-0.14,0.315-0.312C33.412,40.263,33.272,40.122,33.097,40.122z"/>
	<path d="M40.488,10.342H9.401c-1.209,0-2.194,0.984-2.194,2.193V36.05c0,1.209,0.985,2.194,2.194,2.194h31.087
		c1.208,0,2.191-0.985,2.191-2.194V12.536C42.68,11.327,41.696,10.342,40.488,10.342z M42.052,36.05
		c0,0.863-0.702,1.565-1.563,1.565H9.401c-0.863,0-1.564-0.702-1.564-1.565v-5.678h34.215V36.05z M42.052,29.742H7.837V12.536
		c0-0.862,0.701-1.564,1.564-1.564h31.087c0.861,0,1.563,0.702,1.563,1.564V29.742z"/>
</g>

<g id="dtp" class="offer_icon">
	<rect x="22.031" y="24.564" width="6.565" height="0.627"/>
	<path d="M37.747,10.342H19.442c-1.042,0-1.888,0.847-1.888,1.888v19.706c0,1.04,0.846,1.887,1.888,1.887H37.77 l0.022-0.004c0.638-0.089,1.842-0.596,1.842-1.883V12.23C39.634,11.189,38.789,10.342,37.747,10.342z M39.009,31.936 c0,1.004-1.117,1.231-1.287,1.261H19.442c-0.696,0-1.261-0.566-1.261-1.261V12.23c0-0.696,0.565-1.262,1.261-1.262h18.305 c0.696,0,1.262,0.565,1.262,1.262V31.936z"/>
	<rect x="22.031" y="17.331" width="13.565" height="0.626"/>
	<rect x="22.031" y="21.769" width="9.992" height="0.627"/>
	<path d="M31.71,38.923c0,1.216-1.133,1.263-1.263,1.263H12.143c-0.695,0-1.263-0.565-1.263-1.263V19.219 c0-0.695,0.567-1.262,1.263-1.262h2.877v-0.626h-2.877c-1.041,0-1.889,0.847-1.889,1.888v19.704c0,1.042,0.848,1.889,1.889,1.889
	h18.305c0.653,0,1.888-0.395,1.888-1.889v-2.388H31.71V38.923z"/>
</g>

<g id="creation" class="offer_icon">
	<path d="M26.636,10.342h-3.384c-1.036,0-1.878,0.842-1.878,1.877v16.433h0.624V12.219
	c0-0.69,0.562-1.251,1.254-1.251h1.38v20.339h0.626V10.968h1.378c0.69,0,1.254,0.562,1.254,1.251v19.207
	c0,0.69-0.563,1.253-1.254,1.253h-3.384v0.624h3.384c1.035,0,1.878-0.843,1.878-1.877V12.219
	C28.514,11.185,27.671,10.342,26.636,10.342z"/>
	<path d="M27.869,34.606l-5.788-0.003c-0.015-0.001-0.033-0.001-0.054-0.001c-0.216,0-0.384,0.083-0.473,0.234
	c-0.062,0.109-0.104,0.29,0.042,0.547c0.202,0.354,0.945,1.637,0.945,1.637l1.958,3.396c0.072,0.151,0.228,0.313,0.443,0.313
	c0.121,0,0.293-0.051,0.433-0.293l2.901-5.021c0.099-0.148,0.168-0.374,0.066-0.567C28.294,34.759,28.168,34.606,27.869,34.606z
	M24.941,39.933l-1.86-3.225c0,0-0.58-1.004-0.854-1.479l5.434,0.003L24.941,39.933z"/>
</g>

<g id="branding" class="offer_icon">
	<rect x="8.92" y="40.16" width="31.802" height="0.622"/>
	<path d="M42.071,29.185H30.63l-0.09,0.156c-0.861,1.48-3.109,2.477-5.596,2.477 c-2.487,0-4.736-0.996-5.596-2.477l-0.09-0.156H7.814c-1.184,0-2.147,0.963-2.147,2.148v4.438c0,1.182,0.963,2.147,2.147,2.147	h34.257c1.186,0,2.148-0.966,2.148-2.147v-4.438C44.22,30.147,43.257,29.185,42.071,29.185z M43.601,35.771
	c0,0.841-0.686,1.525-1.529,1.525H7.814c-0.841,0-1.526-0.685-1.526-1.525v-4.438c0-0.844,0.686-1.526,1.526-1.526h11.09 c1.039,1.604,3.382,2.632,6.04,2.632c2.657,0,5-1.028,6.036-2.632h11.091c0.844,0,1.529,0.683,1.529,1.526V35.771z"/>
	<path d="M22.324,24.039c-0.399,0.54-0.613,1.19-0.613,1.875v1.677c0,1.748,1.421,3.168,3.167,3.168
	c1.746,0,3.166-1.42,3.166-3.168v-1.677c0-0.685-0.215-1.335-0.612-1.875c2.729-1.048,4.531-3.65,4.531-6.611
	c0-3.907-3.179-7.085-7.084-7.085c-3.907,0-7.085,3.179-7.085,7.085C17.792,20.389,19.596,22.991,22.324,24.039z M24.877,10.963
	c3.565,0,6.464,2.899,6.464,6.464c0,2.844-1.823,5.325-4.536,6.172l-0.49,0.152l0.363,0.363
	c0.479,0.479,0.743,1.118,0.743,1.799v1.677c0,1.405-1.143,2.546-2.544,2.546c-1.405,0-2.545-1.141-2.545-2.546v-1.677
	c0-0.679,0.264-1.319,0.744-1.799l0.363-0.363L22.95,23.6c-2.715-0.848-4.539-3.328-4.539-6.172
	C18.412,13.862,21.313,10.963,24.877,10.963z"/>
</g>

<g id="arrow_left">
	<polygon points="27.489,40.458 11.752,24.811 26.222,10.342 26.517,10.638 12.343,24.81 27.783,40.161 	"/>
</g>
<g id="arrow_right">
	<polygon points="23.137,40.458 38.875,24.811 24.405,10.342 24.109,10.638 38.283,24.81 22.844,40.161 	"/>
</g>
<g id="cross">
	<polygon fill="#1e023f" points="33.386,10.487 33.094,10.195 18.089,25.199 3.085,10.195 2.792,10.487 17.797,25.492 2.792,40.498 
		3.085,40.789 18.089,25.784 33.094,40.789 33.386,40.498 18.382,25.492 "/>
</g>
<g id="cross_white">
	<polygon fill="#ffffff" points="33.386,10.487 33.094,10.195 18.089,25.199 3.085,10.195 2.792,10.487 17.797,25.492 2.792,40.498 
		3.085,40.789 18.089,25.784 33.094,40.789 33.386,40.498 18.382,25.492 "/>
</g>


</svg>
