<?xml version="1.0" encoding="utf-8"?>
<!-- Generator: Adobe Illustrator 16.0.0, SVG Export Plug-In . SVG Version: 6.00 Build 0)  -->
<!DOCTYPE svg PUBLIC "-//W3C//DTD SVG 1.1//EN" "http://www.w3.org/Graphics/SVG/1.1/DTD/svg11.dtd">
<svg version="1.1" id="Layer_1" xmlns="http://www.w3.org/2000/svg" xmlns:xlink="http://www.w3.org/1999/xlink" x="0px" y="0px"
	 width="50.917px" height="30.833px" viewBox="0 0 50.917 30.833" enable-background="new 0 0 50.917 30.833" xml:space="preserve">
<path fill="#FFFFFF" d="M33.516,14.765c-0.001,0-0.002,0-0.004-0.004l0.606-1.442c1.134,0.496,1.802,0.2,1.802-1.134v-7.88h-1.305
	l3.076-1.155v9.036c0,0.386-0.038,0.727-0.105,1.039L33.516,14.765z M23.958,13.439c0-2.532,1.802-4.101,4.07-4.101
	c1.041,0,1.928,0.386,2.502,1.166l1.779-0.64l-0.008,1.245l0.003,4.113l-5.451,2.064C25.145,16.89,23.958,15.568,23.958,13.439z
	 M25.791,13.423c0,1.38,0.979,2.361,2.3,2.361c1.491,0,2.439-1.008,2.518-2.237c0.077-1.367-0.809-2.47-2.518-2.47
	C26.8,11.078,25.791,12.057,25.791,13.423z M18.69,12.478l-0.008,7.901l3.146-1.188v-0.006h-1.351V14.42l1.706-0.88v-1.475
	l-1.706,0.88v-0.467c0-1.055,0.861-1.603,1.706-1.359V9.54C20.394,9.218,18.69,10.239,18.69,12.478z M24.235,6.013V5.727
	c0-2.486-1.057-3.697-3.261-3.744c-1.026,0-1.724,0.358-2.377,1.073l-0.124-0.963l-2.75,1.039h1.148v5.049h-1.211v1.078l2.998-1.136
	V5.897c0-1.491,0.916-2.22,2.004-2.22c1.366,0,1.771,0.667,1.771,2.065v0.952L24.235,6.013z M35.635,21.667h-3.963
	c0.086,0.494,0.345,0.916,0.75,1.217l-1.792,0.676c-0.512-0.674-0.79-1.561-0.79-2.623c0-2.299,1.663-3.994,4.084-3.994
	c2.3,0,3.837,1.322,3.881,3.902L35.635,21.667z M31.671,20.207h4.365c-0.154-1.072-0.963-1.648-2.064-1.648
	C32.945,18.558,31.935,19.134,31.671,20.207z M18.708,22.81c-1.026,0-1.723,0.357-2.377,1.07l-0.123-0.963l-2.751,1.041h1.149v5.049
	h-1.211v1.078l2.998-1.133v-2.227c0-1.494,0.917-2.223,2.004-2.223c1.367,0,1.771,0.668,1.771,2.066v0.951l1.802-0.68v-0.285
	C21.969,24.07,20.914,22.857,18.708,22.81z M25.697,19.728v5.168h-1.089v0.943l2.851-1.078V18.65l-2.834,1.078H25.697z
	 M27.298,4.959c-0.031-0.176-0.05-0.357-0.05-0.543c0-1.381,0.838-2.406,2.252-2.406c0.951,0,1.69,0.533,2.029,1.345l1.692-0.638
	c-0.552-1.421-1.841-2.354-3.737-2.354c-2.455,0-4.053,1.754-4.053,4.052c0,0.421,0.05,0.822,0.146,1.194L27.298,4.959z"/>
<path fill="#FFFFFF" d="M36.221,26.599c0,2.979-2.947,3.255-3.978,3.255c-1.028,0-6.715-0.137-8.168-0.137
	c-1.451,0-9.02-2.359-9.02-10.688c0-1.486,0-2.974-0.01-4.463c-0.002-1.381-0.029-2.764-0.034-4.141c0-0.399-0.005-0.801-0.005-1.2
	c-0.008-2.099-0.188-4.459,0.485-6.478c0.519-1.533,1.733-2.152,3.242-2.152c3.641,0,3.883,3.71,3.89,7.438H33.14
	c1.669,0,2.911,1.69,2.911,4.273c0,2.583-2.692,3.162-4.109,3.162h-9.436c-0.047,1.58-0.096,2.869-0.096,3.65
	c0,1.648,0.639,3.428,4.659,3.428h5.648C34.13,22.546,36.221,23.617,36.221,26.599z"/>
<path fill="#FFFFFF" d="M32.412,10.059h-4.636V7.014c0-1.142,0.755-1.41,1.288-1.41c0.531,0,3.276,0,3.276,0V0.58l-4.51-0.019
	c-5.011,0-6.147,3.749-6.147,6.148v3.349h-2.895v5.179h2.895c0,6.645,0,14.65,0,14.65h6.094c0,0,0-8.086,0-14.65h4.106
	L32.412,10.059z"/>
<path fill="#FFFFFF" d="M43.581,4.07c-1.32,0.588-2.742,0.985-4.234,1.16c1.521-0.91,2.695-2.357,3.244-4.083
	c-1.426,0.846-3.004,1.462-4.688,1.794c-1.344-1.436-3.264-2.329-5.383-2.329c-4.076,0-7.379,3.301-7.379,7.375
	c0,0.581,0.066,1.142,0.191,1.681C19.2,9.363,13.765,6.425,10.124,1.96c-0.638,1.091-1,2.357-1,3.709
	c0,2.563,1.305,4.819,3.285,6.141c-1.211-0.036-2.352-0.369-3.344-0.921c-0.003,0.03-0.003,0.062-0.003,0.093
	c0,3.573,2.548,6.553,5.92,7.233c-0.618,0.168-1.271,0.258-1.943,0.258c-0.476,0-0.938-0.043-1.39-0.127
	c0.939,2.926,3.664,5.061,6.893,5.121c-2.524,1.979-5.705,3.16-9.162,3.16c-0.595,0-1.184-0.037-1.762-0.107
	c3.267,2.094,7.148,3.316,11.312,3.316c13.574,0,20.99-11.242,20.99-20.992c0-0.319-0.004-0.639-0.021-0.953
	C41.343,6.85,42.597,5.552,43.581,4.07z"/>
<path fill="#FFFFFF" d="M44.336,5.794h-11.84V2.26h11.84V5.794z M48.662,20.333H33.788c0,5.33,5.053,4.994,5.053,4.994
	c4.771,0,4.602-3.088,4.602-3.088h5.054c0,8.197-9.824,7.631-9.824,7.631c-11.783,0-11.028-10.971-11.028-10.971
	S27.634,7.875,38.672,7.875C50.29,7.875,48.662,20.333,48.662,20.333z M43.16,16.503c0,0,0.059-4.428-4.377-4.428
	c-4.434,0-5.05,4.428-5.05,4.428H43.16z M26.506,20.802c0,8.76-9.113,8.473-9.113,8.473H9.038H8.793H2.459V0.57h6.334h0.244h8.355
	c4.542,0,8.124,2.506,8.124,7.642c0,5.134-4.383,5.463-4.383,5.463C26.907,13.675,26.506,20.802,26.506,20.802z M9.038,12.076h7.836
	c1.356,0,2.551-0.43,2.551-3.42c0-2.986-2.031-2.986-2.031-2.986h-1.072H9.038V12.076z M20.415,20.443
	c0-3.982-3.021-3.939-3.021-3.939H9.038v7.67h7.401c0.122,0,0.313,0.006,0.53,0C18.161,24.144,20.415,23.802,20.415,20.443z"/>
<path fill="#FFFFFF" d="M34.591,0.575h-17.98c-3.121,0-5.662,2.538-5.662,5.659v5.983v11.995c0,3.123,2.541,5.662,5.662,5.662h17.98
	c3.119,0,5.66-2.539,5.66-5.662V12.218V6.234C40.251,3.113,37.71,0.575,34.591,0.575z M36.214,3.951l0.646-0.004v0.648v4.32
	l-4.949,0.018l-0.016-4.969L36.214,3.951z M21.419,12.218c0.939-1.297,2.457-2.151,4.181-2.151c1.721,0,3.244,0.854,4.182,2.151
	c0.611,0.844,0.977,1.883,0.977,3.008c0,2.844-2.316,5.156-5.158,5.156c-2.84,0-5.158-2.312-5.158-5.156
	C20.443,14.101,20.807,13.062,21.419,12.218z M37.396,24.212c0,1.551-1.256,2.807-2.805,2.807h-17.98
	c-1.543,0-2.808-1.256-2.808-2.807V12.218h4.377c-0.377,0.93-0.59,1.943-0.59,3.008c0,4.416,3.594,8.014,8.01,8.014
	c4.418,0,8.014-3.598,8.014-8.014c0-1.065-0.217-2.079-0.594-3.008h4.375V24.212z"/>
<g>
	<g>
		<g>
			<g>
				<path fill="#FFFFFF" d="M25.601,24.959c0.918,0,1.666-0.748,1.666-1.664c0-0.922-0.748-1.668-1.666-1.668
					s-1.667,0.746-1.667,1.668C23.934,24.211,24.683,24.959,25.601,24.959z M25.601,22.231c0.584,0,1.061,0.475,1.061,1.064
					c0,0.584-0.477,1.062-1.061,1.062c-0.587,0-1.062-0.479-1.062-1.062C24.539,22.706,25.014,22.231,25.601,22.231z"/>
			</g>
		</g>
		<g>
			<path fill="#FFFFFF" d="M33.43,29.221H17.77c-0.168,0-0.303,0.137-0.303,0.301c0,0.168,0.135,0.303,0.303,0.303h15.66
				c0.168,0,0.301-0.135,0.301-0.303C33.73,29.358,33.598,29.221,33.43,29.221z"/>
		</g>
		<g>
			<g>
				<path fill="#FFFFFF" d="M40.525,0.625H10.674c-1.16,0-2.105,0.944-2.105,2.106v22.581c0,1.16,0.945,2.109,2.105,2.109h29.852
					c1.162,0,2.105-0.949,2.105-2.109V2.73C42.631,1.569,41.688,0.625,40.525,0.625z M42.027,25.311
					c0,0.832-0.674,1.504-1.502,1.504H10.674c-0.828,0-1.501-0.672-1.501-1.504v-5.455h32.854V25.311z M42.027,19.254H9.173V2.73
					c0-0.829,0.673-1.502,1.501-1.502h29.852c0.828,0,1.502,0.674,1.502,1.502V19.254z"/>
			</g>
		</g>
	</g>
</g>
<path fill="#FFFFFF" d="M22.802,14.252h6.306v0.602h-6.306V14.252z M39.706,2.407v18.923c0,1.234-1.155,1.723-1.767,1.809
	l-0.021,0.002h-17.6c-1,0-1.812-0.812-1.812-1.811V2.407c0-0.999,0.812-1.812,1.812-1.812h17.577
	C38.897,0.595,39.706,1.409,39.706,2.407z M39.107,2.407c0-0.667-0.543-1.211-1.213-1.211H20.318c-0.668,0-1.212,0.544-1.212,1.211
	v18.923c0,0.666,0.544,1.209,1.212,1.209H37.87c0.165-0.027,1.237-0.244,1.237-1.209V2.407z M22.802,7.908h13.027V7.307H22.802
	V7.908z M22.802,12.17h9.597v-0.603h-9.597V12.17z M32.099,28.042c0,1.166-1.089,1.211-1.212,1.211H13.307
	c-0.667,0-1.212-0.543-1.212-1.211V9.119c0-0.668,0.545-1.211,1.212-1.211h2.765V7.307h-2.765c-0.998,0-1.813,0.812-1.813,1.812
	v18.923c0,0.998,0.815,1.812,1.813,1.812h17.579c0.626,0,1.812-0.379,1.812-1.812v-2.295h-0.6V28.042z"/>
<g>
	<g>
		<g>
			<path fill="#FFFFFF" d="M27.225,0.635h-3.251c-0.992,0-1.804,0.808-1.804,1.801v15.78h0.601V2.437
				c0-0.662,0.54-1.202,1.203-1.202h1.325v19.53h0.602V1.235h1.324c0.663,0,1.204,0.54,1.204,1.202V20.88
				c0,0.664-0.541,1.203-1.204,1.203h-3.251v0.598h3.251c0.993,0,1.804-0.807,1.804-1.801V2.437
				C29.029,1.443,28.218,0.635,27.225,0.635z"/>
		</g>
		<g>
			<g>
				<path fill="#FFFFFF" d="M28.409,23.935l-5.558-0.002c-0.015-0.004-0.032-0.004-0.053-0.004c-0.208,0-0.37,0.082-0.454,0.227
					c-0.06,0.105-0.099,0.281,0.042,0.525c0.193,0.342,0.905,1.572,0.905,1.572l1.882,3.26c0.068,0.146,0.217,0.301,0.424,0.301
					c0.116,0,0.281-0.049,0.416-0.281l2.787-4.82c0.093-0.141,0.16-0.357,0.063-0.545C28.817,24.082,28.695,23.935,28.409,23.935z
					 M25.597,29.048l-1.785-3.096c0,0-0.558-0.965-0.819-1.418l5.216,0.004L25.597,29.048z"/>
			</g>
		</g>
	</g>
</g>
<path fill="#FFFFFF" d="M10.212,29.243H40.75v0.598H10.212V29.243z M44.111,20.764v4.263c0,1.133-0.926,2.062-2.061,2.062h-32.9
	c-1.136,0-2.062-0.93-2.062-2.062v-4.263c0-1.135,0.927-2.064,2.062-2.064H20.14l0.087,0.152c0.827,1.422,2.985,2.379,5.374,2.379
	c2.385,0,4.546-0.957,5.372-2.379l0.088-0.152h10.99C43.186,18.7,44.111,19.629,44.111,20.764z M43.516,20.764
	c0-0.809-0.656-1.465-1.465-1.465H31.397c-0.996,1.541-3.245,2.527-5.796,2.527c-2.554,0-4.803-0.986-5.8-2.527H9.151
	c-0.809,0-1.466,0.656-1.466,1.465v4.263c0,0.807,0.657,1.465,1.466,1.465h32.9c0.809,0,1.465-0.658,1.465-1.465V20.764z
	 M18.733,7.412c0-3.751,3.052-6.803,6.804-6.803c3.749,0,6.803,3.052,6.803,6.803c0,2.844-1.731,5.342-4.354,6.35
	c0.384,0.519,0.59,1.144,0.59,1.798v1.61c0,1.682-1.363,3.043-3.039,3.043c-1.678,0-3.04-1.361-3.04-3.043v-1.61
	c0-0.654,0.204-1.279,0.588-1.798C20.465,12.754,18.733,10.256,18.733,7.412z M19.329,7.412c0,2.732,1.75,5.112,4.356,5.927
	l0.47,0.146l-0.35,0.349c-0.46,0.461-0.714,1.075-0.714,1.726v1.61c0,1.352,1.098,2.445,2.445,2.445
	c1.346,0,2.442-1.094,2.442-2.445v-1.61c0-0.653-0.253-1.265-0.713-1.726l-0.35-0.349l0.472-0.146
	c2.604-0.813,4.355-3.195,4.355-5.927c0-3.423-2.784-6.207-6.207-6.207S19.329,3.989,19.329,7.412z"/>
<g>
	<polygon fill="#FFFFFF" points="33.014,29.684 17.902,14.66 31.796,0.765 32.08,1.048 18.471,14.658 33.297,29.397 	"/>
</g>
<g>
	<polygon fill="#FFFFFF" points="18.186,29.684 33.297,14.66 19.403,0.765 19.119,1.048 32.729,14.658 17.902,29.397 	"/>
</g>
<g>
	<polygon fill="#FFFFFF" points="18.184,29.685 33.297,14.66 19.4,0.765 19.118,1.048 32.729,14.658 17.902,29.398 	"/>
</g>
<polygon fill="#FFFFFF" points="40.448,0.801 40.022,0.376 25.601,14.8 11.178,0.376 10.751,0.801 25.175,15.226 10.751,29.65 
	11.178,30.074 25.601,15.65 40.022,30.074 40.448,29.65 26.027,15.226 "/>
<path fill="#FFFFFF" d="M48.747,0.593v4.336H2.452V0.593H48.747z M2.452,17.394h46.295v-4.336H2.452V17.394z M2.452,29.857h46.295
	v-4.336H2.452V29.857z"/>
<path fill="#FFFFFF" d="M25.602,3.037c-13.938,0-25.277,5.467-25.277,12.188c0,6.719,11.339,12.188,25.277,12.188
	c13.936,0,25.273-5.469,25.273-12.188C50.875,8.504,39.537,3.037,25.602,3.037z M1.325,15.225c0-5.31,8.073-9.763,18.857-10.901
	c-4.005,1.999-6.77,6.128-6.77,10.901c0,4.772,2.765,8.902,6.771,10.901C9.399,24.989,1.325,20.534,1.325,15.225z M25.602,4.04
	c6.167,0,11.184,5.018,11.184,11.186c0,6.167-5.017,11.186-11.184,11.186c-6.169,0-11.187-5.019-11.187-11.186
	C14.415,9.057,19.433,4.04,25.602,4.04z M31.016,26.126c4.005-1.999,6.771-6.129,6.771-10.901c0-4.773-2.765-8.902-6.769-10.901
	c10.785,1.138,18.857,5.592,18.857,10.901S41.802,24.989,31.016,26.126z M25.602,21.674c3.555,0,6.447-2.894,6.447-6.449
	c0-3.557-2.892-6.451-6.447-6.451c-3.558,0-6.452,2.894-6.452,6.451C19.149,18.781,22.044,21.674,25.602,21.674z M25.602,9.776
	c3.002,0,5.446,2.444,5.446,5.449c0,3.005-2.443,5.447-5.446,5.447c-3.005,0-5.449-2.442-5.449-5.447
	C20.152,12.221,22.597,9.776,25.602,9.776z"/>
</svg>
