<?xml version="1.0" encoding="utf-8"?>
<!-- Generator: Adobe Illustrator 16.0.0, SVG Export Plug-In . SVG Version: 6.00 Build 0)  -->
<!DOCTYPE svg PUBLIC "-//W3C//DTD SVG 1.1//EN" "http://www.w3.org/Graphics/SVG/1.1/DTD/svg11.dtd">
<svg version="1.1" id="Layer_1" xmlns="http://www.w3.org/2000/svg" xmlns:xlink="http://www.w3.org/1999/xlink" x="0px" y="0px"
	 width="53.75px" height="30px" viewBox="0 0 53.75 30" enable-background="new 0 0 53.75 30" xml:space="preserve">
<g>
	<g>
		<path fill="#FFFFFF" d="M39.39,12.886c0.067-0.312,0.105-0.653,0.105-1.039V2.811l-3.076,1.155h1.305v7.88
			c0,1.334-0.668,1.63-1.802,1.134l-0.606,1.442c0.002,0.004,0.003,0.004,0.004,0.004L39.39,12.886z"/>
		<path fill="#FFFFFF" d="M28.657,16.948l5.45-2.064l-0.003-4.113l0.008-1.245l-1.778,0.64C31.76,9.387,30.873,9,29.832,9
			c-2.269,0-4.07,1.569-4.07,4.101C25.762,15.229,26.949,16.552,28.657,16.948z M29.895,10.74c1.709,0,2.595,1.103,2.518,2.47
			c-0.078,1.229-1.026,2.237-2.518,2.237c-1.321,0-2.3-0.98-2.3-2.361C27.595,11.719,28.604,10.74,29.895,10.74z"/>
		<path fill="#FFFFFF" d="M23.632,18.853v-0.006h-1.351v-4.765l1.707-0.88v-1.475l-1.707,0.88V12.14
			c0-1.055,0.862-1.603,1.707-1.359V9.202c-1.789-0.322-3.493,0.699-3.493,2.938l-0.008,7.9L23.632,18.853z"/>
	</g>
	<path fill="#FFFFFF" d="M22.778,1.645c-1.027,0-1.724,0.358-2.377,1.073l-0.124-0.963l-2.75,1.039h1.149v5.049h-1.211v1.078
		l2.999-1.136V5.56c0-1.491,0.916-2.22,2.003-2.22c1.366,0,1.771,0.667,1.771,2.065v0.952l1.802-0.682V5.389
		C26.039,2.903,24.982,1.692,22.778,1.645z"/>
	<g>
		<path fill="#FFFFFF" d="M39.608,20.508c-0.044-2.58-1.581-3.902-3.881-3.902c-2.421,0-4.084,1.694-4.084,3.993
			c0,1.062,0.278,1.95,0.79,2.623l1.792-0.675c-0.405-0.301-0.664-0.723-0.75-1.218h3.963L39.608,20.508z M35.775,18.221
			c1.102,0,1.91,0.575,2.064,1.647h-4.364C33.739,18.796,34.749,18.221,35.775,18.221z"/>
		<path fill="#FFFFFF" d="M20.512,22.472c-1.026,0-1.723,0.358-2.376,1.071l-0.124-0.963l-2.75,1.041h1.149v5.049h-1.211v1.078
			l2.999-1.134v-2.226c0-1.494,0.917-2.224,2.003-2.224c1.368,0,1.771,0.669,1.771,2.066v0.952l1.802-0.681v-0.285
			C23.773,23.731,22.718,22.52,20.512,22.472z"/>
		<polygon fill="#FFFFFF" points="27.501,19.39 27.501,24.559 26.412,24.559 26.412,25.501 29.263,24.423 29.263,18.312 
			26.429,19.39 		"/>
	</g>
	<g>
		<path fill="#FFFFFF" d="M29.103,4.622c-0.031-0.176-0.05-0.357-0.05-0.543c0-1.381,0.838-2.406,2.252-2.406
			c0.951,0,1.69,0.533,2.029,1.345l1.691-0.638c-0.552-1.421-1.841-2.354-3.736-2.354c-2.455,0-4.053,1.754-4.053,4.052
			c0,0.421,0.05,0.822,0.146,1.194L29.103,4.622z"/>
	</g>
</g>
<g>
	<path fill="#FFFFFF" d="M33.671,0.42L19.849,14.243c0,0,15.109,13.822,15.109,15.111"/>
	<path fill="#FFFFFF" d="M21.137,0.42l13.821,13.823c0,0-15.109,13.822-15.109,15.111"/>
	<path fill="#FFFFFF" d="M34.521,22.208h-5.647c-4.021,0-4.659-1.778-4.659-3.428c0-0.781,0.049-2.07,0.096-3.65h9.436
		c1.416,0,4.108-0.578,4.108-3.161c0-2.583-1.242-4.273-2.911-4.273H24.428c-0.007-3.728-0.249-7.438-3.89-7.438
		c-1.508,0-2.724,0.619-3.242,2.152c-0.673,2.019-0.493,4.379-0.485,6.478c0,0.399,0.005,0.8,0.005,1.2
		c0.005,1.376,0.032,2.759,0.035,4.141c0.009,1.489,0.01,2.976,0.01,4.463c0,8.329,7.568,10.688,9.019,10.688
		c1.453,0,7.141,0.138,8.168,0.138c1.03,0,3.978-0.275,3.978-3.257S35.934,22.208,34.521,22.208z"/>
	<path fill="#FFFFFF" d="M34.216,9.721H29.58V6.677c0-1.142,0.755-1.411,1.288-1.411c0.531,0,3.275,0,3.275,0V0.243l-4.51-0.019
		c-5.011,0-6.147,3.749-6.147,6.148v3.349h-2.894v5.178h2.894c0,6.646,0,14.651,0,14.651h6.094c0,0,0-8.086,0-14.651h4.106
		L34.216,9.721z"/>
	<path fill="#FFFFFF" d="M45.386,3.732c-1.32,0.588-2.743,0.985-4.234,1.16c1.521-0.91,2.694-2.357,3.243-4.083
		c-1.426,0.846-3.004,1.462-4.688,1.794c-1.344-1.436-3.263-2.329-5.383-2.329c-4.076,0-7.379,3.301-7.379,7.375
		c0,0.581,0.066,1.142,0.191,1.681c-6.133-0.306-11.569-3.244-15.209-7.709c-0.638,1.091-1,2.357-1,3.709
		c0,2.563,1.305,4.819,3.286,6.141c-1.211-0.036-2.351-0.369-3.344-0.921c-0.003,0.03-0.003,0.062-0.003,0.093
		c0,3.573,2.548,6.555,5.92,7.234c-0.618,0.167-1.271,0.258-1.943,0.258c-0.476,0-0.939-0.044-1.39-0.128
		c0.94,2.927,3.665,5.062,6.893,5.121c-2.525,1.979-5.705,3.16-9.163,3.16c-0.594,0-1.183-0.037-1.761-0.106
		c3.266,2.093,7.148,3.316,11.312,3.316c13.574,0,20.99-11.243,20.99-20.994c0-0.319-0.003-0.639-0.021-0.953
		C43.146,6.512,44.401,5.214,45.386,3.732z"/>
	<path fill="#FFFFFF" d="M22.938,13.337c0,0,4.383-0.329,4.383-5.462c0-5.136-3.582-7.642-8.125-7.642h-8.354h-0.245H4.263v28.705
		h6.334h0.245h8.354c0,0,9.114,0.287,9.114-8.473C28.311,20.465,28.711,13.337,22.938,13.337z M10.842,5.332h7.283h1.071
		c0,0,2.032,0,2.032,2.986c0,2.99-1.195,3.42-2.551,3.42h-7.836V5.332z M18.774,23.836c-0.218,0.006-0.409,0-0.531,0h-7.401v-7.67
		h8.354c0,0,3.022-0.043,3.022,3.938C22.219,23.464,19.965,23.807,18.774,23.836z M40.477,7.537
		c-11.038,0-11.028,11.025-11.028,11.025s-0.755,10.972,11.028,10.972c0,0,9.824,0.565,9.824-7.632h-5.054
		c0,0,0.17,3.088-4.602,3.088c0,0-5.053,0.337-5.053-4.993h14.874C50.467,19.996,52.095,7.537,40.477,7.537z M35.538,16.166
		c0,0,0.616-4.428,5.05-4.428c4.436,0,4.377,4.428,4.377,4.428H35.538z M46.141,5.457h-11.84V1.922h11.84V5.457z"/>
	<path fill="#FFFFFF" d="M36.394,0.237H18.415c-3.122,0-5.662,2.538-5.662,5.659v5.983v11.995c0,3.122,2.54,5.662,5.662,5.662
		h17.979c3.12,0,5.661-2.54,5.661-5.662V11.88V5.896C42.055,2.775,39.514,0.237,36.394,0.237z M38.017,3.613l0.646-0.004v0.648v4.32
		l-4.949,0.018l-0.015-4.969L38.017,3.613z M23.223,11.88c0.939-1.297,2.457-2.151,4.182-2.151c1.721,0,3.244,0.854,4.181,2.151
		c0.611,0.845,0.978,1.882,0.978,3.008c0,2.844-2.317,5.156-5.158,5.156s-5.158-2.312-5.158-5.156
		C22.247,13.762,22.61,12.725,23.223,11.88z M39.199,23.875c0,1.551-1.257,2.807-2.806,2.807H18.415
		c-1.543,0-2.808-1.256-2.808-2.807V11.88h4.377c-0.377,0.93-0.59,1.943-0.59,3.008c0,4.416,3.594,8.014,8.011,8.014
		c4.418,0,8.013-3.598,8.013-8.014c0-1.065-0.217-2.078-0.593-3.008h4.375V23.875z"/>
	<g>
		<g>
			<g>
				<g>
					<path fill="#FFFFFF" d="M27.405,24.623c0.918,0,1.666-0.748,1.666-1.665c0-0.921-0.748-1.667-1.666-1.667
						s-1.667,0.746-1.667,1.667C25.738,23.875,26.487,24.623,27.405,24.623z M27.405,21.894c0.584,0,1.061,0.475,1.061,1.064
						c0,0.585-0.477,1.062-1.061,1.062c-0.587,0-1.062-0.478-1.062-1.062C26.344,22.368,26.818,21.894,27.405,21.894z"/>
				</g>
			</g>
			<g>
				<path fill="#FFFFFF" d="M35.233,28.884h-15.66c-0.167,0-0.302,0.138-0.302,0.302c0,0.167,0.135,0.303,0.302,0.303h15.66
					c0.168,0,0.302-0.136,0.302-0.303C35.535,29.021,35.401,28.884,35.233,28.884z"/>
			</g>
			<g>
				<g>
					<path fill="#FFFFFF" d="M42.33,0.287H12.479c-1.16,0-2.106,0.944-2.106,2.106v22.581c0,1.161,0.946,2.109,2.106,2.109H42.33
						c1.162,0,2.105-0.948,2.105-2.109V2.393C44.436,1.231,43.492,0.287,42.33,0.287z M43.832,24.974
						c0,0.832-0.675,1.504-1.502,1.504H12.479c-0.829,0-1.501-0.672-1.501-1.504V19.52h32.854V24.974z M43.832,18.918H10.978V2.393
						c0-0.829,0.673-1.502,1.501-1.502H42.33c0.827,0,1.502,0.674,1.502,1.502V18.918z"/>
				</g>
			</g>
		</g>
	</g>
	<g>
		<g>
			<g>
				<rect x="24.605" y="13.916" fill="#FFFFFF" width="6.306" height="0.601"/>
			</g>
			<g>
				<g>
					<path fill="#FFFFFF" d="M39.697,0.258H22.122c-1.001,0-1.813,0.813-1.813,1.812v18.924c0,0.998,0.812,1.811,1.813,1.811h17.599
						l0.021-0.002c0.611-0.087,1.767-0.574,1.767-1.809V2.07C41.509,1.071,40.7,0.258,39.697,0.258z M40.91,20.994
						c0,0.964-1.072,1.181-1.237,1.208H22.122c-0.668,0-1.212-0.543-1.212-1.208V2.07c0-0.667,0.544-1.211,1.212-1.211h17.576
						c0.67,0,1.213,0.544,1.213,1.211V20.994z"/>
				</g>
			</g>
			<g>
				<rect x="24.605" y="6.969" fill="#FFFFFF" width="13.026" height="0.601"/>
			</g>
			<g>
				<rect x="24.605" y="11.23" fill="#FFFFFF" width="9.597" height="0.603"/>
			</g>
			<g>
				<path fill="#FFFFFF" d="M33.901,27.705c0,1.165-1.089,1.211-1.212,1.211H15.11c-0.667,0-1.211-0.544-1.211-1.211V8.781
					c0-0.668,0.545-1.211,1.211-1.211h2.764V6.969H15.11c-0.998,0-1.813,0.813-1.813,1.812v18.924c0,0.998,0.815,1.812,1.813,1.812
					h17.579c0.626,0,1.812-0.38,1.812-1.812V25.41h-0.6V27.705z"/>
			</g>
		</g>
	</g>
	<g>
		<g>
			<g>
				<path fill="#FFFFFF" d="M29.029,0.297h-3.251c-0.992,0-1.804,0.808-1.804,1.801v15.78h0.601V2.099
					c0-0.662,0.54-1.202,1.203-1.202h1.325v19.531h0.602V0.897h1.324c0.663,0,1.204,0.54,1.204,1.202v18.444
					c0,0.664-0.541,1.203-1.204,1.203h-3.251v0.598h3.251c0.993,0,1.804-0.807,1.804-1.801V2.099
					C30.833,1.105,30.022,0.297,29.029,0.297z"/>
			</g>
			<g>
				<g>
					<path fill="#FFFFFF" d="M30.213,23.598l-5.558-0.002c-0.015-0.004-0.032-0.004-0.053-0.004c-0.208,0-0.37,0.081-0.454,0.227
						c-0.06,0.104-0.099,0.281,0.042,0.525c0.193,0.341,0.905,1.572,0.905,1.572l1.882,3.26c0.068,0.146,0.217,0.301,0.424,0.301
						c0.116,0,0.281-0.049,0.416-0.281l2.787-4.82c0.093-0.142,0.16-0.358,0.063-0.545C30.621,23.743,30.499,23.598,30.213,23.598z
						 M27.401,28.711l-1.785-3.096c0,0-0.558-0.965-0.819-1.419l5.216,0.004L27.401,28.711z"/>
				</g>
			</g>
		</g>
	</g>
	<g>
		<g>
			<g>
				<rect x="12.017" y="28.905" fill="#FFFFFF" width="30.537" height="0.599"/>
			</g>
			<g>
				<g>
					<path fill="#FFFFFF" d="M43.854,18.363H32.865l-0.088,0.151c-0.826,1.423-2.987,2.379-5.372,2.379
						c-2.389,0-4.547-0.956-5.375-2.379l-0.086-0.151H10.956c-1.136,0-2.062,0.929-2.062,2.064v4.263
						c0,1.134,0.926,2.062,2.062,2.062h32.898c1.136,0,2.061-0.929,2.061-2.062v-4.263C45.914,19.292,44.989,18.363,43.854,18.363z
						 M45.318,24.69c0,0.807-0.656,1.466-1.465,1.466H10.956c-0.809,0-1.466-0.659-1.466-1.466v-4.263
						c0-0.81,0.658-1.465,1.466-1.465h10.649c0.998,1.541,3.247,2.527,5.8,2.527c2.551,0,4.8-0.986,5.796-2.527h10.652
						c0.809,0,1.465,0.655,1.465,1.465V24.69z"/>
				</g>
			</g>
			<g>
				<g>
					<path fill="#FFFFFF" d="M24.889,13.425c-0.384,0.519-0.588,1.144-0.588,1.798v1.611c0,1.681,1.362,3.042,3.04,3.042
						c1.676,0,3.039-1.361,3.039-3.042v-1.611c0-0.654-0.206-1.279-0.59-1.798c2.623-1.008,4.354-3.506,4.354-6.35
						c0-3.751-3.054-6.803-6.803-6.803c-3.752,0-6.804,3.052-6.804,6.803C20.537,9.919,22.269,12.417,24.889,13.425z M27.341,0.869
						c3.423,0,6.207,2.784,6.207,6.207c0,2.732-1.751,5.114-4.355,5.927l-0.472,0.146l0.35,0.348
						c0.46,0.461,0.713,1.073,0.713,1.726v1.611c0,1.352-1.097,2.444-2.442,2.444c-1.348,0-2.445-1.093-2.445-2.444v-1.611
						c0-0.65,0.254-1.265,0.714-1.726l0.35-0.348l-0.47-0.146c-2.606-0.815-4.357-3.195-4.357-5.927
						C21.132,3.652,23.918,0.869,27.341,0.869z"/>
				</g>
			</g>
		</g>
	</g>
	<g>
		<polygon fill="#FFFFFF" points="34.818,29.347 19.708,14.323 33.601,0.428 33.885,0.711 20.275,14.321 35.102,29.06 		"/>
	</g>
	<g>
		<polygon fill="#FFFFFF" points="19.988,29.347 35.102,14.323 21.206,0.428 20.923,0.711 34.532,14.321 19.708,29.06 		"/>
	</g>
	<polygon fill="#FFFFFF" points="42.252,0.463 41.826,0.038 27.404,14.462 12.981,0.038 12.554,0.463 26.979,14.888 12.554,29.312 
		12.981,29.736 27.404,15.312 41.826,29.736 42.252,29.312 27.829,14.888 	"/>
	<g>
		<g>
			<rect x="4.256" y="0.272" fill="#FFFFFF" width="46.294" height="4.336"/>
		</g>
		<g>
			<rect x="4.256" y="12.737" fill="#FFFFFF" width="46.294" height="4.336"/>
		</g>
		<g>
			<rect x="4.256" y="25.2" fill="#FFFFFF" width="46.294" height="4.337"/>
		</g>
	</g>
</g>
<g>
	<g>
		<path fill="#FFFFFF" d="M27.405,27.074c-13.938,0-25.277-5.469-25.277-12.187c0-6.721,11.339-12.188,25.277-12.188
			c13.936,0,25.274,5.467,25.274,12.188C52.68,21.605,41.341,27.074,27.405,27.074z M27.405,3.702
			c-13.386,0-24.276,5.018-24.276,11.186c0,6.167,10.89,11.185,24.276,11.185c13.385,0,24.273-5.019,24.273-11.185
			C51.679,8.719,40.79,3.702,27.405,3.702z"/>
	</g>
	<g>
		<path fill="#FFFFFF" d="M27.405,27.074c-6.721,0-12.189-5.469-12.189-12.187c0-6.721,5.468-12.188,12.189-12.188
			c6.719,0,12.186,5.467,12.186,12.188C39.591,21.605,34.124,27.074,27.405,27.074z M27.405,3.702
			c-6.169,0-11.187,5.018-11.187,11.186c0,6.167,5.018,11.185,11.187,11.185c6.167,0,11.185-5.019,11.185-11.185
			C38.59,8.719,33.572,3.702,27.405,3.702z"/>
	</g>
	<g>
		<path fill="#FFFFFF" d="M27.405,21.336c-3.558,0-6.452-2.894-6.452-6.449c0-3.557,2.894-6.451,6.452-6.451
			c3.556,0,6.448,2.894,6.448,6.451C33.854,18.442,30.961,21.336,27.405,21.336z M27.405,9.438c-3.005,0-5.449,2.444-5.449,5.449
			s2.444,5.447,5.449,5.447c3.003,0,5.446-2.442,5.446-5.447S30.408,9.438,27.405,9.438z"/>
	</g>
</g>
<g>
	<path fill="#FFFFFF" d="M27.405,17.282c-1.321,0-2.396-1.074-2.396-2.395c0-1.32,1.074-2.395,2.396-2.395
		c1.319,0,2.393,1.075,2.393,2.395C29.798,16.208,28.725,17.282,27.405,17.282z M27.405,13.494c-0.77,0-1.395,0.626-1.395,1.394
		c0,0.768,0.625,1.393,1.395,1.393c0.768,0,1.392-0.625,1.392-1.393C28.797,14.12,28.173,13.494,27.405,13.494z"/>
</g>
</svg>
