<?xml version="1.0" encoding="utf-8"?>
<!-- Generator: Adobe Illustrator 16.0.0, SVG Export Plug-In . SVG Version: 6.00 Build 0)  -->
<!DOCTYPE svg PUBLIC "-//W3C//DTD SVG 1.1//EN" "http://www.w3.org/Graphics/SVG/1.1/DTD/svg11.dtd">
<svg version="1.1" id="Layer_1" xmlns="http://www.w3.org/2000/svg" xmlns:xlink="http://www.w3.org/1999/xlink" x="0px" y="0px"
	 width="50px" height="50px" viewBox="0 0 50 50" enable-background="new 0 0 50 50" xml:space="preserve">
<!-- <g id="fb">
	<path fill="#35429B" d="M35.054,17.363h-6.713v-4.406c0-1.655,1.093-2.042,1.865-2.042c0.77,0,4.743,0,4.743,0V3.643l-6.527-0.027
	c-7.253,0-8.899,5.426-8.899,8.898v4.849h-4.192v7.493h4.192c0,9.62,0,21.208,0,21.208h8.818c0,0,0-11.704,0-21.208h5.945
	L35.054,17.363z"/>
</g> 
<g id="twitter">	
<path fill="#35429B" d="M46.104,11.867c-1.536,0.685-3.19,1.147-4.925,1.351c1.771-1.061,3.132-2.743,3.772-4.749
	c-1.658,0.984-3.495,1.7-5.45,2.085c-1.563-1.668-3.796-2.708-6.262-2.708c-4.74,0-8.582,3.839-8.582,8.577
	c0,0.675,0.077,1.328,0.222,1.956c-7.132-0.356-13.454-3.773-17.686-8.964c-0.742,1.268-1.164,2.741-1.164,4.314
	c0,2.98,1.517,5.603,3.821,7.142c-1.408-0.043-2.734-0.431-3.887-1.072c-0.005,0.034-0.005,0.07-0.005,0.109
	c0,4.155,2.962,7.624,6.886,8.413c-0.721,0.197-1.479,0.301-2.261,0.301c-0.553,0-1.093-0.052-1.616-0.15
	c1.095,3.405,4.26,5.887,8.016,5.957c-2.936,2.301-6.634,3.672-10.654,3.672c-0.694,0-1.377-0.041-2.05-0.119
	c3.8,2.434,8.312,3.854,13.155,3.854c15.785,0,24.412-13.073,24.412-24.414c0-0.372-0.005-0.743-0.024-1.108
	C43.502,15.102,44.958,13.59,46.104,11.867z"/>
</g> -->
<path fill="#35429B" d="M20.814,23.32c0,0,4.298-0.322,4.298-5.358c0-5.037-3.515-7.494-7.969-7.494H8.951h-0.24H2.498v28.148h6.213
	h0.24h8.193c0,0,8.938,0.284,8.938-8.309C26.082,30.308,26.477,23.32,20.814,23.32z M8.951,15.468h7.142h1.051
	c0,0,1.995,0,1.995,2.928c0,2.931-1.173,3.355-2.501,3.355H8.951V15.468z M16.729,33.615c-0.215,0.004-0.401,0-0.521,0H8.951v-7.523
	h8.193c0,0,2.964-0.041,2.964,3.865C20.108,33.249,17.897,33.587,16.729,33.615z M38.011,17.631
	c-10.824,0-10.813,10.812-10.813,10.812s-0.739,10.762,10.813,10.762c0,0,9.638,0.553,9.638-7.486h-4.956c0,0,0.165,3.03-4.514,3.03
	c0,0-4.955,0.329-4.955-4.9h14.587C47.811,29.848,49.408,17.631,38.011,17.631z M33.17,26.092c0,0,0.604-4.34,4.955-4.34
	c4.347,0,4.29,4.34,4.29,4.34H33.17z M43.571,15.591H31.957v-3.466h11.614V15.591z"/>
<path fill="#35429B" d="M37.702,4.451h-25.02c-4.346,0-7.88,3.534-7.88,7.879v8.325v16.694c0,4.345,3.534,7.881,7.88,7.881h25.02
	c4.341,0,7.88-3.536,7.88-7.881V20.655V12.33C45.582,7.984,42.043,4.451,37.702,4.451z M39.962,9.149l0.9-0.004v0.9v6.013
	l-6.891,0.023L33.951,9.17L39.962,9.149z M19.373,20.655c1.308-1.806,3.421-2.995,5.819-2.995s4.518,1.188,5.821,2.995
	c0.85,1.176,1.359,2.62,1.359,4.184c0,3.958-3.223,7.176-7.181,7.176c-3.954,0-7.177-3.218-7.177-7.176
	C18.015,23.275,18.521,21.831,19.373,20.655z M41.61,37.349c0,2.155-1.754,3.907-3.908,3.907h-25.02
	c-2.151,0-3.908-1.752-3.908-3.907V20.655h6.089c-0.523,1.294-0.82,2.704-0.82,4.184c0,6.147,5.001,11.152,11.147,11.152
	c6.152,0,11.153-5.005,11.153-11.152c0-1.48-0.303-2.89-0.826-4.184h6.092V37.349z"/>
</svg>
