<?xml version="1.0" encoding="utf-8"?>
<!-- Generator: Adobe Illustrator 15.1.0, SVG Export Plug-In . SVG Version: 6.00 Build 0)  -->
<!DOCTYPE svg PUBLIC "-//W3C//DTD SVG 1.1//EN" "http://www.w3.org/Graphics/SVG/1.1/DTD/svg11.dtd">
<svg version="1.1" id="Layer_1" xmlns="http://www.w3.org/2000/svg" xmlns:xlink="http://www.w3.org/1999/xlink" x="0px" y="0px"
	 viewBox="0 0 50 50" enable-background="new 0 0 50 50" xml:space="preserve">

	 <style xmlns="http://www.w3.org/2000/svg">
	    g { display: none; }
	    g:target { display: inline; }
	    .white { fill: #ffffff; }
	    .color { fill: #00ffff; }
	 </style>

<g id="white">	 
	<g>
		<path d="M44.23,21.79c0.106-0.499,0.166-1.05,0.166-1.667V5.627l-4.932,1.851h2.093v12.645
			c0,2.143-1.072,2.615-2.892,1.818l-0.971,2.317c0.001,0,0.004,0.002,0.006,0.002L44.23,21.79z"/>
		<path d="M27.011,28.307l8.746-3.311l-0.007-6.598l0.012-1.996l-2.853,1.023c-0.922-1.247-2.343-1.87-4.013-1.87
			c-3.639,0-6.53,2.518-6.53,6.58C22.367,25.55,24.272,27.67,27.011,28.307z M28.996,18.347c2.742,0,4.162,1.769,4.036,3.962
			c-0.123,1.969-1.644,3.588-4.036,3.588c-2.117,0-3.688-1.569-3.688-3.788C25.309,19.917,26.928,18.347,28.996,18.347z"/>
		<path d="M18.95,31.359v-0.008h-2.168v-7.642l2.737-1.412V19.93l-2.737,1.412v-0.746
			c0-1.695,1.382-2.573,2.737-2.184v-2.534c-2.87-0.517-5.604,1.123-5.604,4.717l-0.013,12.673L18.95,31.359z"/>
	</g>
	<path d="M17.579,3.756c-1.646,0-2.768,0.573-3.814,1.719l-0.2-1.545l-4.41,1.668H11V13.7H9.055v1.729l4.812-1.821
		v-3.572c0-2.391,1.469-3.562,3.213-3.562c2.193,0,2.842,1.07,2.842,3.314v1.528l2.89-1.094V9.762
		C22.812,5.774,21.118,3.831,17.579,3.756z"/>
	<g>
		<path d="M44.581,34.017c-0.071-4.135-2.538-6.258-6.224-6.258c-3.889,0-6.557,2.718-6.557,6.405
			c0,1.704,0.449,3.128,1.271,4.21l2.873-1.088c-0.649-0.479-1.065-1.155-1.203-1.951h6.358L44.581,34.017z M38.432,30.352
			c1.77,0,3.064,0.922,3.313,2.642h-7.003C35.166,31.274,36.787,30.352,38.432,30.352z"/>
		<path d="M13.942,37.17c-1.645,0-2.765,0.574-3.812,1.721l-0.198-1.546l-4.411,1.67h1.844v8.1H5.419v1.729
			l4.812-1.821v-3.571c0-2.392,1.469-3.564,3.215-3.564c2.192,0,2.84,1.074,2.84,3.317v1.527l2.89-1.095v-0.459
			C19.176,39.192,17.482,37.247,13.942,37.17z"/>
		<polygon points="25.156,32.226 25.156,40.519 23.41,40.519 23.41,42.033 27.983,40.301 27.983,30.496 
			23.437,32.226 	"/>
	</g>
	<g>
		<path d="M27.726,8.53c-0.052-0.281-0.078-0.571-0.078-0.87c0-2.217,1.344-3.862,3.612-3.862
			c1.525,0,2.711,0.856,3.256,2.16l2.711-1.026c-0.883-2.277-2.949-3.776-5.991-3.776c-3.938,0-6.504,2.816-6.504,6.503
			c0,0.675,0.081,1.315,0.235,1.915L27.726,8.53z"/>
	</g>
</g>


</svg>
