<svg id="Layer_1" xmlns="http://www.w3.org/2000/svg" viewBox="0 0 50 50"><style xmlns="http://www.w3.org/2000/svg">svg g { display: none; } svg g:target { display: inline; } .white { fill: #ffffff; } .color { fill: #00ffff; }</style><g id="white"><path d="M44.23 21.79c.106-.5.166-1.05.166-1.667V5.627l-4.932 1.85h2.093v12.646c0 2.143-1.072 2.615-2.892 1.818l-.97 2.318.005.002 6.53-2.47zM27.01 28.307l8.747-3.31-.007-6.6.012-1.995-2.853 1.023c-.923-1.247-2.344-1.87-4.014-1.87-3.64 0-6.53 2.518-6.53 6.58 0 3.415 1.906 5.535 4.645 6.172zm1.986-9.96c2.742 0 4.162 1.77 4.036 3.962-.123 1.968-1.644 3.587-4.036 3.587-2.117 0-3.688-1.57-3.688-3.788 0-2.193 1.62-3.763 3.688-3.763zM18.95 31.36v-.01h-2.168v-7.64l2.737-1.413V19.93l-2.738 1.412v-.746c0-1.695 1.382-2.573 2.737-2.184v-2.534c-2.87-.517-5.605 1.123-5.605 4.717l-.013 12.673 5.048-1.91zM17.58 3.756c-1.647 0-2.77.573-3.815 1.72l-.2-1.546-4.41 1.668H11V13.7H9.055v1.73l4.812-1.822v-3.572c0-2.39 1.47-3.562 3.213-3.562 2.193 0 2.842 1.07 2.842 3.314v1.528l2.89-1.094v-.46c0-3.988-1.694-5.93-5.233-6.006z"/><g><path d="M44.58 34.017c-.07-4.135-2.537-6.258-6.223-6.258-3.89 0-6.557 2.717-6.557 6.404 0 1.704.45 3.128 1.27 4.21l2.874-1.088c-.65-.48-1.065-1.155-1.203-1.95h6.36l3.48-1.32zm-6.148-3.665c1.77 0 3.064.922 3.313 2.642h-7.003c.424-1.72 2.045-2.642 3.69-2.642zM13.942 37.17c-1.645 0-2.765.574-3.812 1.72l-.198-1.545-4.41 1.67h1.843v8.1H5.42v1.73l4.81-1.822v-3.57c0-2.393 1.47-3.565 3.216-3.565 2.192 0 2.84 1.074 2.84 3.317v1.527l2.89-1.095v-.46c0-3.985-1.694-5.93-5.234-6.007zM25.156 32.226v8.293H23.41v1.513l4.573-1.732v-9.804l-4.546 1.73z"/></g><g><path d="M27.726 8.53c-.052-.28-.078-.57-.078-.87 0-2.217 1.344-3.862 3.612-3.862 1.525 0 2.71.856 3.256 2.16l2.71-1.026c-.882-2.277-2.948-3.776-5.99-3.776-3.938 0-6.504 2.816-6.504 6.503 0 .674.08 1.314.235 1.914l2.76-1.044z"/></g></g><g id="color"><path d="M44.23 21.79c.106-.5.166-1.05.166-1.667V5.627l-4.932 1.85h2.093v12.646c0 2.143-1.072 2.615-2.892 1.818l-.97 2.318.005.002 6.53-2.47zM27.01 28.307l8.747-3.31-.007-6.6.012-1.995-2.853 1.023c-.923-1.247-2.344-1.87-4.014-1.87-3.64 0-6.53 2.518-6.53 6.58 0 3.415 1.906 5.535 4.645 6.172zm1.986-9.96c2.742 0 4.162 1.77 4.036 3.962-.123 1.968-1.644 3.587-4.036 3.587-2.117 0-3.688-1.57-3.688-3.788 0-2.193 1.62-3.763 3.688-3.763zM18.95 31.36v-.01h-2.168v-7.64l2.737-1.413V19.93l-2.738 1.412v-.746c0-1.695 1.382-2.573 2.737-2.184v-2.534c-2.87-.517-5.605 1.123-5.605 4.717l-.013 12.673 5.048-1.91zM17.58 3.756c-1.647 0-2.77.573-3.815 1.72l-.2-1.546-4.41 1.668H11V13.7H9.055v1.73l4.812-1.822v-3.572c0-2.39 1.47-3.562 3.213-3.562 2.193 0 2.842 1.07 2.842 3.314v1.528l2.89-1.094v-.46c0-3.988-1.694-5.93-5.233-6.006z"/><g><path d="M44.58 34.017c-.07-4.135-2.537-6.258-6.223-6.258-3.89 0-6.557 2.717-6.557 6.404 0 1.704.45 3.128 1.27 4.21l2.874-1.088c-.65-.48-1.065-1.155-1.203-1.95h6.36l3.48-1.32zm-6.148-3.665c1.77 0 3.064.922 3.313 2.642h-7.003c.424-1.72 2.045-2.642 3.69-2.642zM13.942 37.17c-1.645 0-2.765.574-3.812 1.72l-.198-1.545-4.41 1.67h1.843v8.1H5.42v1.73l4.81-1.822v-3.57c0-2.393 1.47-3.565 3.216-3.565 2.192 0 2.84 1.074 2.84 3.317v1.527l2.89-1.095v-.46c0-3.985-1.694-5.93-5.234-6.007zM25.156 32.226v8.293H23.41v1.513l4.573-1.732v-9.804l-4.546 1.73z"/></g><g><path d="M27.726 8.53c-.052-.28-.078-.57-.078-.87 0-2.217 1.344-3.862 3.612-3.862 1.525 0 2.71.856 3.256 2.16l2.71-1.026c-.882-2.277-2.948-3.776-5.99-3.776-3.938 0-6.504 2.816-6.504 6.503 0 .674.08 1.314.235 1.914l2.76-1.044z"/></g></g></svg>